<svg width="256" height="256" viewBox="0 0 256 256" fill="none" xmlns="http://www.w3.org/2000/svg">
  <rect width="256" height="256" rx="16" fill="url(#paint0_linear_financial)" />
  <rect x="50" y="60" width="156" height="136" rx="8" fill="#F8FAFC" />
  <path d="M76 169L96 145L116 157L136 125L156 139L176 109" stroke="#F43F5E" strokeWidth="4" strokeLinecap="round" strokeLinejoin="round" />
  <circle cx="76" cy="169" r="6" fill="#F43F5E" />
  <circle cx="96" cy="145" r="6" fill="#F43F5E" />
  <circle cx="116" cy="157" r="6" fill="#F43F5E" />
  <circle cx="136" cy="125" r="6" fill="#F43F5E" />
  <circle cx="156" cy="139" r="6" fill="#F43F5E" />
  <circle cx="176" cy="109" r="6" fill="#F43F5E" />
  <path d="M68 88L188 88" stroke="#E2E8F0" strokeWidth="2" />
  <path d="M68 108L188 108" stroke="#E2E8F0" strokeWidth="2" />
  <rect x="68" y="76" width="24" height="6" rx="3" fill="#FDA4AF" />
  <rect x="68" y="96" width="18" height="6" rx="3" fill="#FDA4AF" />
  <defs>
    <linearGradient id="paint0_linear_financial" x1="0" y1="0" x2="256" y2="256" gradientUnits="userSpaceOnUse">
      <stop stopColor="#BE185D" />
      <stop offset="1" stopColor="#F43F5E" />
    </linearGradient>
  </defs>
</svg>