<svg width="40" height="40" viewBox="0 0 40 40" xmlns="http://www.w3.org/2000/svg">
  <defs>
    <linearGradient id="gradient5" x1="0%" y1="0%" x2="100%" y2="100%">
      <stop offset="0%" stop-color="#F44336"/>
      <stop offset="100%" stop-color="#E91E63"/>
    </linearGradient>
  </defs>
  <circle cx="20" cy="20" r="20" fill="url(#gradient5)"/>
  <path d="M20,9 C16,9 14,12 14,15 C14,18 16,22 20,22 C24,22 26,18 26,15 C26,12 24,9 20,9 Z" fill="#fff" opacity="0.9"/>
  <path d="M10,34 C10,26 14,25 20,25 C26,25 30,26 30,34" fill="#fff" opacity="0.9"/>
  <path d="M16,15 C15,15 16,13 17,14 C18,15 17,15 16,15" fill="#333"/>
  <path d="M24,15 C23,15 24,13 25,14 C26,15 25,15 24,15" fill="#333"/>
  <path d="M17,19 C17,19 18,21 20,21 C22,21 23,19 23,19" stroke="#333" stroke-width="1.5" fill="none"/>
</svg>