<svg width="40" height="40" viewBox="0 0 40 40" xmlns="http://www.w3.org/2000/svg">
  <defs>
    <linearGradient id="gradient4" x1="0%" y1="0%" x2="100%" y2="100%">
      <stop offset="0%" stop-color="#4CAF50"/>
      <stop offset="100%" stop-color="#8BC34A"/>
    </linearGradient>
  </defs>
  <circle cx="20" cy="20" r="20" fill="url(#gradient4)"/>
  <circle cx="20" cy="15" r="6" fill="#fff" opacity="0.9"/>
  <path d="M12,32 C12,25 16,24 20,24 C24,24 28,25 28,32" fill="#fff" opacity="0.9"/>
  <path d="M17,15 C16,15 16,14 17,14 C18,14 18,15 17,15" fill="#333"/>
  <path d="M23,15 C22,15 22,14 23,14 C24,14 24,15 23,15" fill="#333"/>
  <path d="M17,18 C17,18 19,20 23,18" stroke="#333" stroke-width="1.5" fill="none"/>
</svg>