<svg width="40" height="40" viewBox="0 0 40 40" xmlns="http://www.w3.org/2000/svg">
  <defs>
    <linearGradient id="gradient3" x1="0%" y1="0%" x2="100%" y2="100%">
      <stop offset="0%" stop-color="#FF9800"/>
      <stop offset="100%" stop-color="#FF5722"/>
    </linearGradient>
  </defs>
  <circle cx="20" cy="20" r="20" fill="url(#gradient3)"/>
  <path d="M20,8 C16,8 13,11 13,14 C13,17 15,19 17,20 C17,20 16,21 16,22 C16,23 17,23 17,23 L23,23 C23,23 24,23 24,22 C24,21 23,20 23,20 C25,19 27,17 27,14 C27,11 24,8 20,8 Z" fill="#fff" opacity="0.9"/>
  <path d="M14,26 C14,26 14,24 20,24 C26,24 26,26 26,26 L26,28 C26,30 24,32 20,32 C16,32 14,30 14,28 Z" fill="#fff" opacity="0.9"/>
</svg>